<?xml version="1.0" encoding="utf-8"?>
<!-- Generator: Adobe Illustrator 22.0.0, SVG Export Plug-In . SVG Version: 6.00 Build 0)  -->
<svg version="1.1" id="Layer_1" xmlns="http://www.w3.org/2000/svg" xmlns:xlink="http://www.w3.org/1999/xlink" x="0px" y="0px"
	 viewBox="0 0 742.6 672.5" style="enable-background:new 0 0 742.6 672.5;" xml:space="preserve">
<style type="text/css">
	.st0{opacity:0.13;fill:#51BDE0;enable-background:new    ;}
	.st1{fill:#A5CD39;}
	.st2{fill:#88A826;}
	.st3{fill:none;stroke:#CDE86B;stroke-width:1.5983;stroke-linecap:round;stroke-miterlimit:10;}
	.st4{fill:#E2F3F7;}
	.st5{fill:#07294D;}
	.st6{fill:#B7EAFF;}
	.st7{fill:#00BFFF;}
	.st8{fill:#005AA9;}
	.st9{fill:#F6921E;}
	.st10{fill:#0A355B;}
	.st11{fill:#365E7E;}
	.st12{opacity:0.7;fill:#E8F7FF;enable-background:new    ;}
	.st13{opacity:0.4;fill:#A7D5E8;enable-background:new    ;}
	.st14{fill:#045089;}
	.st15{fill:#517F88;}
	.st16{fill:#2D5354;}
	.st17{fill:#89B1B9;}
	.st18{fill:#F0CAAE;}
	.st19{fill:#00A2D1;}
	.st20{fill:#509091;}
	.st21{fill:#96B526;}
	.st22{fill:#BDD95F;}
	.st23{opacity:0.2;enable-background:new    ;}
	.st24{fill:#EF8F88;}
	.st25{fill:#F4B5AD;}
	.st26{fill:#E8AD7B;}
	.st27{clip-path:url(#SVGID_2_);}
	.st28{fill:none;stroke:#F6921E;stroke-width:0.7378;stroke-miterlimit:22.9256;}
	.st29{fill:#FFA898;}
	.st30{fill:#223B77;}
	.st31{fill:#FF8E79;}
	.st32{fill:#AF6861;}
	.st33{fill:#AD645D;}
	.st34{fill:#F9E691;}
	.st35{fill:#FFFFFF;}
	.st36{fill:#C99238;}
	.st37{opacity:0.18;fill:#F8BD7B;enable-background:new    ;}
	.st38{fill:none;stroke:#07294D;stroke-width:1.0783;stroke-miterlimit:22.9256;}
	.st39{fill:none;stroke:#07294D;stroke-width:2.1563;stroke-miterlimit:22.9256;}
	.st40{fill:#FFD0AF;}
	.st41{fill:#FFD642;}
	.st42{fill:#FFB487;}
</style>
<path class="st0" d="M13.9,68.4c1-15.9,14.2-28.5,30.3-28.5c12.7,0,23.7,7.9,28.1,18.9c3.6-4.1,8.9-6.7,14.7-6.7
	c9.7,0,17.6,7,19.2,16.3H13.9z"/>
<g>
	<g>
		<path class="st1" d="M364.6,593.1c-1-17.2-15.4-30.9-32.9-30.9c-13.8,0-25.6,8.5-30.5,20.6c-3.9-4.4-9.6-7.2-16-7.2
			c-10.4,0-19.2,7.6-20.9,17.7h100.3L364.6,593.1L364.6,593.1z"/>
		<path class="st2" d="M408.1,593.1c-1-17.2-15.4-30.9-32.9-30.9c-13.8,0-25.6,8.5-30.5,20.6c-3.9-4.4-9.6-7.2-16-7.2
			c-10.4,0-19.2,7.6-20.9,17.7h100.3L408.1,593.1L408.1,593.1z"/>
	</g>
	<g>
		<path class="st1" d="M459.3,593.1c-1-17.2-15.4-30.9-32.9-30.9c-13.8,0-25.6,8.5-30.5,20.6c-3.9-4.4-9.6-7.2-16-7.2
			c-10.4,0-19.2,7.6-20.9,17.7h100.3V593.1z"/>
		<path class="st2" d="M480.9,593.1c-1-17.2-15.4-30.9-32.9-30.9c-13.8,0-25.6,8.5-30.5,20.6c-3.9-4.4-9.6-7.2-16-7.2
			c-10.4,0-19.2,7.6-20.9,17.7h100.3L480.9,593.1L480.9,593.1z"/>
	</g>
	<g>
		<path class="st1" d="M418.4,593.1c0.1,0.5,5.1-13.3-2.8-26.1c-7.8-12.8-22.6-33.5-48.2-46.3s-63-9.9-50.2,11.8
			c12.7,21.6,38.3,31.5,46.3,34.5c7.8,2.9,34.8,21.7,39.1,26.1H418.4z"/>
		<path class="st2" d="M440.4,593.1c0,0,19.4-10.3,20.5-26.1c1-15.8-7.8-53.2,40.4-63.9c0,0,0.9-2.9-7.8-4c-8.9-1-56-5.5-72.3,31.1
			l-7.4,20l8.4,42.8L440.4,593.1z"/>
		<path class="st3" d="M490.4,501.6c0,0-46.3-1.1-53.9,44.5"/>
		<path class="st3" d="M409.4,584c-6.2-15.3-32.9-53.3-85.8-62.4"/>
		<path class="st1" d="M434.4,593.1c0,0,14-19.2,16-28.1c2-8.9-0.9-20.7-12.7-20.7s-16.7-2.9-17.7-19.7c-0.9-16.7,2-30.5-12.7-29.6
			s-21.7,24-9.4,49l13.6,49L434.4,593.1z"/>
		<path class="st3" d="M432.1,589.2c0,0,3-25.6-10.8-38.4c-13.8-12.8-18.7-37.4-13.7-51.2"/>
	</g>
</g>
<g>
	<g>
		<path class="st4" d="M661.9,603.2c-47.9,48-123.8,54.2-191.1,45.2c-48.3-6.5-94.4-24.9-143.1-25.1
			c-79.4-0.3-156.8,23.6-226.2-29.2c-41.6-31.6-58.7-71.3-63.2-115.4c-2.7-26.6-0.9-54.7,3-83.7c0.7-4.9,1.4-9.8,2.2-14.8
			c2.7-17.1,5.8-34.4,8-51.7c0.9-7.2,1.6-14.3,2-21.5c0-0.6,0.1-1.3,0.1-1.9c0.3-6.4,0.4-12.7,0.2-19.1c-0.1-3.3-0.4-6.5-0.7-9.7
			c-2.8-24.6-11.9-46.1-10.7-71c0.1-3.1,0.4-6.2,0.9-9.5c4.8-30.8,19.8-60,40.4-83.2c10.1-11.3,21.5-21.3,33.8-30.2
			C143,64.2,172.4,51,202.6,42c68.9-20.6,144.5-30.6,214.5-10.3c49.1,14.3,94.6,45.8,118.2,91.1c0,0.1,0.1,0.1,0.1,0.2
			c15.3,29.5,20.8,63,29.4,95.1c1.1,4.3,2.3,8.6,3.6,12.8c2.4,8,5.2,15.9,8.4,23.5c2,4.7,4.2,9.3,6.6,13.7c0.2,0.5,0.5,0.9,0.7,1.3
			c0.5,1,1.1,2,1.7,3c2.6,4.4,5.4,8.7,8.4,12.8c14.7,20.4,33.5,37.7,50,56.8c0.4,0.4,0.7,0.8,1.1,1.2c24,28,43.1,60.7,53,96.1
			c2.9,10.5,5,21.1,6.2,32C709.8,518.8,695.7,569.3,661.9,603.2z"/>
		<g>
			<g>
				<g>
					<path class="st5" d="M374.2,119.5C374.2,119.6,374.2,119.6,374.2,119.5L365.9,235l-0.5,7.3c0,0.5-0.4,0.9-0.9,1l-1.1,0.2
						c-0.8,0.2-1.5-0.4-1.4-1.2l0.5-6.7l8.4-113.7L374.2,119.5z"/>
					<path class="st6" d="M419.7,117.8c-1.2,0.7-2.4,1.3-3.7,1.7L419.7,117.8z"/>
					<path class="st7" d="M426.5,112.1c-0.5,0.6-1,1.1-1.5,1.7c-1.4,1.5-3.1,2.8-5,3.9c-0.6-4.5-3.3-10.2-7.8-17
						c-5.1-7.7-11.4-14.4-15.6-16.1c0.9-0.7,1.8-1.3,2.8-1.9c1.7-1,3.4-1.7,5.2-2.3c8.8-2.7,18.2-0.1,23.3,6.8
						c0.4,0.6,0.8,1.2,1.2,1.8C433.3,96.3,431.9,105.4,426.5,112.1z"/>
					<path class="st8" d="M415.4,104.5L324.5,163c-0.6-0.6-7.3-3.6-7-5.7c-1.2-1.7-2.5-6.2-2.8-8.1L396,85c0.2-0.2,0.4-0.3,0.6-0.5
						c4.2,1.8,10.5,8.5,15.6,16.1C412.7,101.4,414.9,103.8,415.4,104.5z"/>
					<path class="st9" d="M386,140.2l-5.2,2.4L378,144l-10.9,5.2l-3.8,1.8l-0.5,0.2c-1.3,0.6-2.9,0.1-3.5-1.2l-1.4-2.9l28-13.3
						l1.4,2.9C387.9,138,387.3,139.6,386,140.2z"/>
					<path class="st10" d="M426,117.7c-0.6,1.3-4,2.7-6,0.1v-0.1c-0.5-4-2.7-8.9-6.3-14.7c-0.5-0.8-1-1.5-1.5-2.3
						c-5.1-7.7-11.4-14.4-15.6-16.1c-0.1,0-0.1-0.1-0.2-0.1c-1.1-4.7,3.6-5.2,4-5.1c1.1,0,2.5,0.4,4.1,1.1c4,1.9,9.2,6.4,14.3,14.1
						c0.9,1.3,1.7,2.7,2.4,3.9c1.9,3.4,3.3,6.5,4.2,9.2c0.5,1.6,0.9,3.1,1,4.5C426.8,114.5,426.6,116.4,426,117.7z"/>
					<path class="st10" d="M322.9,165.3c-1.2,0-3.9-0.4-6.3-2.3c-0.6-0.4-1.1-0.9-1.7-1.5c-0.4-0.5-0.9-1-1.2-1.6
						c-0.7-1.1-1.2-2.2-1.6-3.3c-1-2.9-0.8-5.6-0.3-6.8c0.3-0.5,2.2-1.8,3-0.7c0.2,1.9,1.5,6.4,2.8,8.1c0.4,0.6,1,1.2,1.6,1.7
						c1.8,1.7,4,3.3,5.4,3.8h0.1C325.1,164.8,323.1,165.3,322.9,165.3z"/>
					<path class="st5" d="M437.4,266.9h-0.9c-0.4,0-0.9-0.3-1-0.7l-2.7-5.8L378,144l2.9-1.4l55.4,117.8l2.3,4.8
						C438.8,266,438.3,266.9,437.4,266.9z"/>
					<path class="st5" d="M367.1,149.2v0.1l-32.3,111.1l-1.6,5.6c-0.1,0.5-0.6,0.8-1.1,0.8H331c-0.8,0-1.3-0.7-1.1-1.5l1.5-5
						l32-109.5L367.1,149.2z"/>
					<path class="st11" d="M331.3,260.5h3.5l-1.6,5.6c-0.1,0.5-0.6,0.8-1.1,0.8H331c-0.8,0-1.3-0.7-1.1-1.5L331.3,260.5z"/>
					<path class="st11" d="M437.4,266.9h-0.9c-0.4,0-0.9-0.3-1-0.7l-2.7-5.8h3.5l2.3,4.8C438.8,266,438.3,266.9,437.4,266.9z"/>
					<path class="st12" d="M424.5,93.3c-0.5,1.2-5-5.6-7.2-7c-2.1-1.4-7.1-3.5-6.6-4.7s6-0.9,9.1,1C423.6,85,425,92.1,424.5,93.3z"
						/>
					<path class="st13" d="M426.5,112.1c-0.2-1.3-4.8-12-5.3-13.6c3.3,4.7,7.5,3.6,8.2,0.7c1.1-4.3-0.3-8.6-1.6-12.1
						c0.4,0.6,0.8,1.2,1.2,1.8C433.3,96.3,431.9,105.4,426.5,112.1z"/>
					<path class="st14" d="M420.8,117.5c-0.1,0.1-1,0.3-1.1,0.4l-3.7,1.7l-30.1,14.3l-28,13.3L324.6,163h-0.1
						c-1.3-0.6-3.6-2.1-5.4-3.8l95.1-56.6C417.8,108.2,420.3,113.4,420.8,117.5z"/>
					<path class="st9" d="M314.9,161.5c-0.4-0.5-0.9-1-1.2-1.6c-0.7-1.1-1.2-2.2-1.6-3.3l-3.7,2.5c-1.3,0.9-1.7,2.7-0.8,4l1.1,1.7
						c0.1,0.1,0.1,0.2,0.2,0.3c0.9,1.1,2.6,1.3,3.8,0.5l3.9-2.6C316,162.6,315.4,162.1,314.9,161.5z"/>
					<path class="st5" d="M322.9,165.3c-1.2,0-3.9-0.4-6.3-2.3c-0.6-0.4-1.1-0.9-1.7-1.5l0,0c0.6-1.7,2.3-2.8,4.1-2.5h0.1
						c1.8,1.7,4,3.3,5.4,3.8h0.1C325.1,164.8,323.1,165.3,322.9,165.3z"/>
					<path class="st5" d="M426,117.7c-0.6,1.3-4,2.7-6,0.1l0,0c-0.5-4-2.7-9-6.3-14.9l0.3-0.6c1.2-2.8,7.2-3.8,7.2-3.8
						c1.9,3.4,3.5,6.4,4.4,9.1c0.5,1.6,0.9,3.1,1,4.5C426.8,114.5,426.6,116.4,426,117.7z"/>
				</g>
				<g>
					<path class="st15" d="M324.8,251c-0.5,0.5-12.1,1.1-13.8,0.5c-0.5-0.2-0.8-0.7-0.8-1.3c-0.1-1.3,0.5-3,0.5-3s3.5,0,6,0
						c0.9,0,5.3,1.3,7.2,1.7c1.1,0.3,1.4,0.8,1.4,1.3C325.3,250.5,325.1,250.8,324.8,251z"/>
					<path class="st5" d="M306.7,197.3c0,0,7.2,15.2,8.7,23.1c1.2,6.6,2.3,25.6,2,26.4c-0.4,0.9-6.9,1.1-7.1,0.1
						c-0.4-2.7-3.8-17.2-5.3-21.9c-0.8-2.5-11.5-21-11.5-21C294.4,203.8,306.7,197.3,306.7,197.3z"/>
					<path class="st16" d="M302.3,167.8c0-0.2-0.6-0.2-1.9-0.3c-4.5-0.3-4.2,0.4-4.2,0.4l2.1,0.5l0,0c0.2,0,2.4,0.4,3.5-0.1
						C302.1,168,302.3,167.9,302.3,167.8z"/>
					<path class="st15" d="M298,255.5c-0.5,0.4-12.2,0.8-13.8,0.1c-0.5-0.2-0.7-0.8-0.8-1.4c-0.1-1.3,0.6-3,0.6-3s3.5,0.1,6,0.2
						c0.9,0,5.3,1.4,7.1,2c1.1,0.3,1.4,0.8,1.3,1.3C298.4,255,298.2,255.3,298,255.5z"/>
					<path class="st17" d="M298,255.5c-0.5,0.4-12.2,0.8-13.8,0.1c-0.5-0.2-0.7-0.8-0.8-1.4c0.8,0.3,3.3,0.9,7.2,0.8
						c4-0.1,6.6-0.1,7.9-0.4C298.4,255,298.2,255.3,298,255.5z"/>
					<path class="st17" d="M291.2,252.8c-0.1,0.2-0.3,0.3-0.5,0.2s-0.2-0.3-0.2-0.5c0.1-0.2,0.3-0.3,0.5-0.2
						C291.2,252.4,291.3,252.6,291.2,252.8z"/>
					<path class="st17" d="M292.8,253.2c-0.1,0.2-0.3,0.3-0.5,0.2s-0.2-0.3-0.2-0.5c0.1-0.2,0.3-0.3,0.5-0.2S292.9,253,292.8,253.2z
						"/>
					<path class="st17" d="M294.3,253.5c-0.1,0.2-0.3,0.3-0.5,0.2s-0.2-0.3-0.2-0.5c0.1-0.2,0.3-0.3,0.5-0.2
						S294.4,253.3,294.3,253.5z"/>
					<path class="st18" d="M296.7,156.7v12.6l4.7-0.2v-1.7c2.2-0.6,4.7-2.7,4.9-5.1c0.3-3.6-0.3-5.5-0.3-5.5L296.7,156.7z"/>
					<path class="st10" d="M308.7,195.9c0,0-16.7,54.5-17.2,55.7c-0.3,0.8-7.8,0.6-8-0.2c-0.3-1.7,8.3-55.8,8.3-55.8L308.7,195.9z"
						/>
					<path class="st19" d="M326.7,167.8c0.1,0.4-6.3,8.8-8.2,9.8c-2.6,1.4-9.4,2.8-9.6,2.3s-7.3-8.4-7.3-8.4s10.5,2.2,12.5,1.1
						c4.6-2.5,9.8-6.1,9.9-6.1C324.5,166.6,326.5,166.9,326.7,167.8z"/>
					<path class="st7" d="M309.1,186.8c0-7.7-1.1-16.2-5.5-16.7c-2.4-0.2-10.1-0.3-11.8,3.8c-1.2,2.9,0.6,12.2,0.1,15.3
						c-0.5,3.5-1.5,8.5-0.6,10.3c0.4,0.8,10,6,16.5,0C310,197.7,309.1,192.7,309.1,186.8z"/>
					<path class="st5" d="M294.9,155.3c1.1-1.9,2.8-3.8,7.6-3.5c4.1,0.3,4.6,4,4.5,4.6c-0.2,1.4-1.2,2.3-2.5,2.5
						c-2.9,0.3-3.8,4-4.1,2.3c-0.2-1.1-2.5-2.1-2,0.9c0.2,1.3,0.3,1.4,1.4,1.2c0.6-0.1-0.9,2.1-1.6,2.1c-1.3,0-1.9-0.1-2.3-1.1
						C294.5,160.9,293.5,157.8,294.9,155.3z"/>
					<path class="st19" d="M302.5,169.8c0.1,0.4,0.3,1.1,0.1,1.4c-0.4,1-5.9,1-6.7-0.1c-0.4-0.5-0.2-2.7,0.2-3.5
						c0.2-0.3,1,0.8,3.3,0.8c2.4,0,2.8-0.6,2.8-0.8c0,0,0.3,0.5,0.3,1C302.5,169.3,302.4,169.5,302.5,169.8z"/>
					<g>
						<g>
							<polygon class="st20" points="288,251.7 287.5,251.6 287.7,250.8 288.2,250.9 							"/>
						</g>
					</g>
					<path class="st18" d="M316.4,169.5c0,0-0.9-3.9,0.1-4.5c0,0,0.5,1.9,0.8,1.9c0.5,0,1.6-3.1,2.2-3.1c1.4,0.1,1.4,3.5,0.3,5.8
						c-0.7,1.3-1.5,2.3-1.5,2.2C318.2,171.8,316.4,169.5,316.4,169.5z"/>
					<path class="st18" d="M326.8,165.8c-0.2-0.8-0.3-1.5-1.5-1.8c-0.9-0.2-3.7,0.9-3.8,1.4c-0.1,0.6,0.4,1.9,0.9,2.1
						c0.2,0.1,3.6,1.3,4.4,0.4C326.9,167.7,326.9,166.3,326.8,165.8z"/>
					<path class="st17" d="M324.8,251c-0.5,0.5-12.1,1.1-13.8,0.5c-0.5-0.2-0.8-0.7-0.8-1.3c0.8,0.2,3.4,0.8,7.2,0.6
						c4-0.2,6.6-0.3,7.8-0.6C325.3,250.5,325.1,250.8,324.8,251z"/>
					<path class="st17" d="M317.9,248.4c-0.1,0.2-0.3,0.3-0.5,0.2s-0.3-0.3-0.2-0.5c0.1-0.2,0.3-0.3,0.5-0.2
						C318,248,318,248.3,317.9,248.4z"/>
					<path class="st19" d="M316,169c-0.2,0-8.1,13.8-9.5,13.2s-1.9-1.9-3.9-3.8c-2.6-2.6-6-5.7-8.2-3.7c-2.6,2.4,0.8,5.9,4.4,9.7
						c2.6,2.7,6.9,7.7,10.4,6.5c1.7-0.6,9.4-17.7,9.5-18.7C318.7,171.4,317,168.7,316,169z"/>
					<path class="st17" d="M319.5,248.8c-0.1,0.2-0.3,0.3-0.5,0.2s-0.3-0.3-0.2-0.5c0.1-0.2,0.3-0.3,0.5-0.2
						C319.6,248.4,319.6,248.6,319.5,248.8z"/>
					<path class="st17" d="M321.1,249.1c-0.1,0.2-0.3,0.3-0.5,0.2s-0.3-0.3-0.2-0.5c0.1-0.2,0.3-0.3,0.5-0.2
						C321.1,248.7,321.2,248.9,321.1,249.1z"/>
				</g>
			</g>
			<g>
				<path class="st14" d="M136,287.1h-18.7l2-54c-26.4-6.3-46.7-46.2-46.7-94.4c0-52.6,24.1-95.3,54-95.3s54,42.7,54,95.3
					c0,48.9-20.8,89.1-47.6,94.7L136,287.1z"/>
				<path class="st5" d="M133,233.3l3,53.7h-18.7l2-54"/>
			</g>
			<g>
				<path class="st8" d="M174.5,278.5h-13.6l1.5-35.8c-19.1-4.2-33.9-30.6-33.9-62.6c0-34.9,17.6-63.2,39.2-63.2
					s39.2,28.3,39.2,63.2c0,32.4-15.1,59-34.5,62.7L174.5,278.5z"/>
				<path class="st5" d="M172.3,242.8l2.2,35.6h-13.6l1.5-35.8"/>
			</g>
			<path class="st21" d="M661.9,603.2c-47.9,48-123.8,54.2-191.1,45.2c-48.3-6.5-94.4-24.9-143.1-25.1
				c-79.4-0.3-156.8,23.6-226.2-29.2C34.8,543.3,31,471.9,41.3,395c2.1-15.8,5.1-31.9,7.6-48.1c2.1-13.9,4-27.9,4.7-41.8
				c3-1.2,5.9-2.5,8.9-3.6c61-22.9,124.9-36.9,189.1-46.8c86.1-13.3,173.7-19.5,260.3-10.3c21.8,2.3,43.6,5.6,65.1,10
				c1,2.4,2.1,4.7,3.2,7.1c1.8,3.7,3.7,7.4,5.8,11c15.6,26.7,39.4,47.4,59.5,70.9c31.1,36.2,54,80.6,59.2,128
				C709.8,518.8,695.7,569.3,661.9,603.2z"/>
			<path class="st22" d="M233.5,386.9c-37.1-6.9-5.1-74.3,16-34.3c0-11.7-2.8-37.3,14.5-39.5c16.2-2,19.1,21.5,17.1,31.8
				c2.2-10.8,16.9-46.6,32.7-42.1c14.9,4.3,3.9,33.6,2,43.4c5-7.4,22.6-24.1,32.9-15.4c10.4,8.8-4.3,23.4-9.3,31.3
				c16.6-14.9,21,8.6,16.6,20.3c-6.1,16.5-18.9,20.3-33.8,20.5C291.6,403.4,258.3,392.6,233.5,386.9z"/>
			<path class="st22" d="M517.4,405.3c-25.6,6.2-24.5-45.8,0.3-26.4c-3.4-7.4-14.8-28.7-4.5-35c9.7-5.9,20.7,14,22.4,21.1
				c-1.7-7.5-2.6-34.5,8.7-36.1c10.7-1.6,12.1,20.2,13.7,27c1.1-6.2,7.5-21.8,16.5-19.2c9.2,2.6,4,16.1,3.1,22.5
				c6.3-14.2,15.8-0.5,16.4,8.1c0.8,12.2-6.2,18.3-15.6,22.7C559,399.2,534.8,401.8,517.4,405.3z"/>
			<path class="st1" d="M661.9,603.2c-47.9,48-123.8,54.2-191.1,45.2c-48.3-6.5-94.4-24.9-143.1-25.1
				c-79.4-0.3-156.8,23.6-226.2-29.2C50.6,555.3,36.3,504.6,37,448.5c0.2-17.4,1.8-35.3,4.2-53.6c0.7-4.9,1.4-9.8,2.2-14.8
				c83.1-31.3,178-8.4,262.9,7.7c63.4,12,129.5,22.1,193.7,10.9c51.6-8.9,99.2-30.7,144.3-56.7c0.4,0.4,0.7,0.8,1.1,1.2
				c1.1,1.3,2.3,2.6,3.4,4c29.4,35.5,50.9,78.3,55.9,124.1C709.8,518.8,695.7,569.3,661.9,603.2z"/>
			<path class="st22" d="M661.9,603.1c-48,48-123.8,54.2-191.1,45.2c-48.3-6.5-94.4-24.9-143.2-25.1
				c-79.4-0.3-156.8,23.6-226.2-29.2c-41.6-31.6-58.7-71.3-63.2-115.4c24.8,24.1,52.4,43.1,91.6,54.2c72.6,20.4,150.5,10,223.3-9.8
				c72.8-19.7,143-48.6,216.4-65.9c42.3-9.9,85.5-15.9,128.9-17.8c2.9,10.5,5,21.2,6.2,32C709.8,518.8,695.7,569.4,661.9,603.1z"/>
		</g>
	</g>
</g>
<path class="st0" d="M633.6,59.1c-1.3-20.8-18.5-37.2-39.6-37.2c-16.6,0-30.9,10.3-36.7,24.7c-4.7-5.4-11.6-8.7-19.2-8.7
	c-12.6,0-23,9.2-25,21.2H633.6z"/>
<g>
	<circle class="st0" cx="639.3" cy="225.6" r="19.4"/>
	<circle class="st0" cx="662.2" cy="177.2" r="4.3"/>
</g>
<g>
	<ellipse class="st23" cx="489.9" cy="306.7" rx="57.2" ry="8.4"/>
	<g>
		<g>
			<path class="st24" d="M517.6,253.8c16-11,17-11.5,27.8-25.4c0.6-0.6,1.6,0.2,1.1,0.9c-9.9,16-8,14.2-21.9,26.9
				c-2.4,2.2-7.8,6.3-10.9,7.2c-0.6,0.2-1.3,0.3-1.8,0c-0.6-0.3-1-0.9-1.3-1.6c-0.9-2.2-1.8-4.4-2.5-6.6c-1.8-5.4-5.3-13.3-1.7-19
				c0.5-0.7,1.1-1.5,1.9-1.8c1.5-0.5,3.1,0.4,3.9,1.8C512.9,237.6,517.6,253.8,517.6,253.8z"/>
		</g>
		<g>
			<path class="st5" d="M489.5,215.7l-0.5,0.1c-3.7,0.8-9.3-4-10.1-7.8l-0.4-7.5l7.3-1.6L489.5,215.7z"/>
			<polygon class="st25" points="496,225.3 482.2,225.3 486.2,211.6 495.5,212.7 			"/>
			<path class="st24" d="M495.5,212.7l-9.4-1.2l-1.8,6.4c2.1,2.4,5.2,6,8.6,6c1.1,0,2.1-0.3,3-0.9L495.5,212.7z"/>
			<path class="st25" d="M497,220c-6.2,1.4-12.3-2.5-13.6-8.7l-2.8-12.4l19.1-4.3c0,0,2.2,9.7,2.2,16.6
				C502,216.4,500.1,219.3,497,220z"/>
			
				<rect x="480.7" y="203.5" transform="matrix(0.9762 -0.2168 0.2168 0.9762 -32.8314 109.4786)" class="st5" width="3.7" height="1.7"/>
			<path class="st25" d="M486,208.3c0.5,2.4-0.2,4.6-1.6,5c-1.4,0.3-3.7-2.5-4.3-4.9c-0.5-2.4,0.9-3.5,2.3-3.8
				C483.9,204.1,485.5,205.8,486,208.3z"/>
			<path class="st5" d="M496.5,190.4c-0.7-0.2-1.4-0.3-2.2-0.3c-3.9-1.4-4.9-2-7.9-1.1c-3.1,0.9-3.8,2.7-3.8,2.7s-6.8,1.2-6.1,9.1
				c0.3,3.2,1.5,5.8,2.7,7.6c0-0.5,0-1.1,0-1.7c0-1.1,0.5-2.5,1.1-3.6l2.5,1.4l1.6,2.7l0.3-0.1c1.2-0.3,2-1.5,1.8-2.7
				c-0.3-2,0.7-4,2.7-4.5l1.9-0.4c0.8,0.2,1.7,0.6,2.5,1.2c3,2.1,5.5,2.9,7.7,2.4l0.2,1.1l0.2-1.2c1-0.3,1.9-0.9,2.8-1.8
				c2.4-2.5,2.5-13-3.7-15.1C500.6,186.4,499.3,189.9,496.5,190.4z"/>
			<path class="st5" d="M482.8,194.9c-0.4,3.5,12.3,8,15.7,8.5c3.4,0.4,6.4-2.1,6.9-5.7c0.4-3.5-1.9-6.8-5.3-7.2
				S483.3,191.4,482.8,194.9z"/>
			<path class="st25" d="M486.5,222.1c0,0-3.6,1.7-6.6,2.5s-3,0-3,0s-1.9,14.2,3.8,17.2c5.7,3,14.3,4.9,14.3,4.9l7.7-4.3l-2.6-14.7
				c0,0-3.4-2.6-5.5-3.8C492.5,222.7,486.5,222.1,486.5,222.1z"/>
		</g>
		<path class="st7" d="M506.7,253.2c8.5-0.4,11.4-6.5,11.4-6.5c-10.2-24.5-16.9-23.2-16.9-23.2h-12.4h-12.4c0,0-6.7-1.3-16.9,23.2
			c0,0,2.9,6.2,11.6,6.5l-11.6,24.1l27.3,14.8l33.9-12.2L506.7,253.2z"/>
		<path class="st25" d="M519.6,280.8l8-6.2c0,0,20.8-3.3,21.7,10.6l-29.8,6.1L519.6,280.8L519.6,280.8z"/>
		<path class="st5" d="M505.2,279.1c6,0,14.6-3.8,22.5-4.5c0,0-9.6,8.4-5.5,19.5c0,0-14.8,6.6-33.3,6.6v-21.6H505.2z"/>
		<path class="st25" d="M535.3,303.2c-12.5,3.7-27.6,3.2-34.4,2.7c-0.4,0-0.7-0.1-1-0.1c-2.2-0.2-4.4,0.1-6.5,0.8
			c-1.2,0.4-2.7,1-4.1,1.7c-0.3,0.2-0.6,0.3-0.9,0.4c-3.9,1.8-7.9,2.6-7.9,2.6c-0.1-1.5,0.1-2.8,0.3-3.9c0.8-3.5,2.5-5.2,2.5-5.2
			h8.5c2.2,0,4.3-0.5,6.3-1.4c0.7-0.3,1.4-0.7,2.1-1.2c32.4-21.9,49.3-14.4,49.3-14.4S551.9,298.3,535.3,303.2z"/>
		<path class="st24" d="M521.1,288.1c0,0,4.8-3.7,13.8-5.2c0,0-6.4-0.8-13.3,1.8C521.6,284.6,520.6,286.9,521.1,288.1z"/>
		<path class="st25" d="M460.7,280.8l-8-6.2c0,0-20.8-3.3-21.7,10.6l29.8,6.1L460.7,280.8L460.7,280.8z"/>
		<path class="st5" d="M452.6,274.6c0,0,9.6,8.4,5.5,19.5c0,0,13.3,6.6,31.8,6.6v-21.6h-17.4C466.5,279.1,460,275.2,452.6,274.6z"/>
		<path class="st24" d="M500.9,305.9c-0.4,0-0.7-0.1-1-0.1c-2.2-0.2-4.4,0.1-6.5,0.8c-1.2,0.4-2.7,1-4.1,1.7
			c-0.3,0.2-0.6,0.3-0.9,0.4c-0.6-0.2-1.1-0.4-1.7-0.6c-1.5-0.5-3.1-0.7-4.7-0.7c-0.4,0-0.8,0-1.2,0c0.8-3.5,2.5-5.2,2.5-5.2h8.5
			c2.2,0,4.3-0.5,6.3-1.4l0.3,0.3C498.3,301.1,499.9,302.8,500.9,305.9z"/>
		<path class="st25" d="M430.9,285.2c0,0,17-7.5,49.4,14.4c2.5,1.7,5.4,2.6,8.4,2.6h8.5c0,0,3.1,3.1,2.8,9.1c0,0-4.6-0.9-8.8-3
			c-1.5-0.7-2.9-1.3-4.1-1.7c-2.1-0.7-4.3-0.9-6.5-0.8c-6.2,0.5-22.3,1.3-35.5-2.6C428.3,298.3,430.9,285.2,430.9,285.2z"/>
		<polygon class="st19" points="471.2,253.2 476,234.5 470,253.2 		"/>
		<path class="st24" d="M458.9,288.1c0,0-4.8-3.7-13.8-5.2c0,0,6.4-0.8,13.3,1.8C458.4,284.6,459.4,286.9,458.9,288.1z"/>
		<path class="st25" d="M496.3,223.5c-7.9-1.9-13.3,0-13.3,0C486.6,229.5,492.1,229.5,496.3,223.5z"/>
		<polygon class="st19" points="506.6,253.1 501.7,234.5 507.9,253.1 		"/>
		<path class="st9" d="M505,251c10.9-5.8,34.5-18.4,42.7-26.3c2.9-2.8,17.3-6.9,1,7c-6,5.2-48.3,33.1-48.6,25.1
			C500.1,254.5,504.7,251.1,505,251z"/>
		<path class="st9" d="M485.4,247.8c9.3-3.6,19.2-0.4,22.1,7.2c2.9,7.6-2.3,16.6-11.6,20.2c-9.3,3.6-19.2,0.4-22.1-7.2
			S476.1,251.4,485.4,247.8z"/>
		<path class="st25" d="M538.5,240c2.3,0.5,4.6-0.9,5.1-3.2s-0.9-4.6-3.2-5.1s-4.6,0.9-5.1,3.2S536.2,239.5,538.5,240z"/>
		<path class="st26" d="M486.8,251.5c6.8-2.6,14.1-0.3,16.2,5.3c2.1,5.5-1.7,12.2-8.5,14.8c-6.8,2.6-14.1,0.3-16.2-5.3
			C476.2,260.7,480,254.1,486.8,251.5z"/>
		<g>
			<g>
				<defs>
					<path id="SVGID_1_" d="M486.8,251.5c6.8-2.6,14.1-0.3,16.2,5.3c2.1,5.5-1.7,12.2-8.5,14.8c-6.8,2.6-14.1,0.3-16.2-5.3
						C476.2,260.7,480,254.1,486.8,251.5z"/>
				</defs>
				<clipPath id="SVGID_2_">
					<use xlink:href="#SVGID_1_"  style="overflow:visible;"/>
				</clipPath>
				<g class="st27">
					<path class="st28" d="M477.7,256.8c0.7,0.1,5.8-2,7-2.3c3.2-0.8,5.2-1.9,8.8-2.7c1.9-0.5,4.3-1.1,6.2-1.6"/>
					<path class="st28" d="M477.4,259.4c1.7,0,24.7-5.4,26-6.9l-0.1-0.2"/>
					<path class="st28" d="M477.8,263.3c-1-0.3,1.2-0.5,2.4-1c2.8-1,12-2.6,15.7-3.5c0.3-0.1,9.6-2.8,9.5-3.1"/>
					<path class="st28" d="M477.3,265.9c2.5-0.7,21.3-6.3,28.1-6.9c0.6-0.1,1.3,0,2,0"/>
					<path class="st28" d="M478.5,267.8c0,0,22.2-4.2,23.3-5.1c0.9-0.7,3-0.5,4.2-0.5"/>
					<path class="st28" d="M481.6,271.1c0.9-0.2,21.7-5.1,22.2-5.1c0.2,0,0.2,0,0.4-0.1"/>
				</g>
			</g>
		</g>
		<path class="st25" d="M460.4,248c-2.5,5.8-5.9,14.8-5,18.2c2.4,5.2,10.1,4.1,16.5,1.1c9.4-4.4,16.7-17.4,9.5-14.6
			c0,0-10.9,13.7-14.9,10.2l3.9-9.6C464.7,252.7,461.7,249.7,460.4,248z"/>
	</g>
</g>
<g>
	<path class="st23" d="M658.7,573.4c0,9.5-60.8,17.2-135.8,17.2c-75.1-0.4-135.9-7.8-135.8-17.2c0-9.5,79.5-19.2,154.6-19.2
		C616.6,554.3,658.7,563.9,658.7,573.4z"/>
	<ellipse class="st23" cx="600.3" cy="526.5" rx="135.8" ry="17.2"/>
	<g>
		<path class="st5" d="M493.4,511.7c-2.5,5.1-3.6,9.3-4,12.7c0.9,0.3,1.8,0.5,2.8,0.8c88.8,23,138.3,5.6,155-42.4l-34.3-8.3
			c0,0-16.4,6.1-17,23.8C562.8,517,528.5,519.5,493.4,511.7z"/>
		<path class="st29" d="M452.2,519.1c15.7-2.5,21.9-0.6,28.4,2c0.7-5.1,2.9-8.9,4.8-11.4c-1.1-0.3-2.2-0.6-3.3-0.9
			c0,0-4.9-7.1-14.4,0c0,0-13.2-2.2-18.3,5.7C448,516.6,449.7,519.5,452.2,519.1z"/>
		<path class="st5" d="M647.1,482.8c37.7,6.4,73.1,13.8,79.2,32.8c-1.2,12.8-11.3,13.4-22.6,12.4l-80.8-16.4l12.5-31.6L647.1,482.8z
			"/>
		<path class="st5" d="M655.8,521.4v8.4c2.7,0.2,5.4,0.3,8,0.5c36.4,2,64.3,0.2,62.4-14.6c-4.9-18.5-31.9-10.2-62.4,2.4
			C661.2,519.1,658.5,520.2,655.8,521.4z"/>
		<path class="st29" d="M655.8,529.8H631c-2.2,0-3.2-2.7-1.6-4.2c2.9-2.6,7.6-3.7,14.3-3.3c0,0,3.2-5.2,12.1-0.9V529.8z"/>
		<path class="st30" d="M480.5,521.1L480.5,521.1c2.7,1.1,5.4,2.3,8.9,3.3c0.4-3.4,1.5-7.6,4-12.7l-8-2
			C483.4,512.2,481.2,516,480.5,521.1z"/>
		<path class="st30" d="M655.8,521.4v8.4c2.7,0.2,5.4,0.3,8,0.5V518C661.2,519.1,658.5,520.2,655.8,521.4z"/>
		<g>
			<path class="st31" d="M619.6,366.2c1.4,2.5,2.8,5.1,4,7.7c3.8,7.6,6.9,15.4,9.4,22.4c1.6,4.6,1.6,8.9,1,12.4
				c-0.9,5.7-6.5,9.5-12,7.9c-3.9-1.1-7.8-4.6-9.2-13.6l-6.1-28.3l-2.6-7.1l-1.1-3l-22.6-26.8l-0.3,0.2c0,0-1.2-1.7-7.4-2.9
				c0,0-6.6,0.4-4.5-1.8l4.3-0.6c0.7-0.1,1.2-0.7,1.1-1.4c0-0.7-0.3-1.7-1-2.9c-0.7-1.2-1.2-2.5-1.6-3.8c-2.1-8.1,1.8-6.7,7.9-1.6
				c0.8,0.8,1.6,1.6,2.3,2.5c2,2.5,4.2,5.7,4.6,8.6c10,4.3,20.4,11.7,27.5,21.9C615.6,359.3,617.7,362.7,619.6,366.2z"/>
		</g>
		<g>
			<g>
				<path class="st29" d="M614.6,401.3c0,0,4.7-8.1,2.5-13.4c0,0-13.7-4.1-17.5-19.7c-0.9-3.7-0.6-7.3,1-9.5
					c3.9-5.2,10.8-10.5,23.2,1.2c0,0,7.7-1.5,3.9,3.4c4.7,4.8,6.5,12.6,3.1,18.1c-0.7,1.1-1.7,2-3,2.7c1.6,5.1,3.1,13.4,3.1,13.4
					L614.6,401.3z"/>
			</g>
			<g>
				<path class="st5" d="M617.6,378.2c-1.4,0.4-2.7,0.5-3.8-0.1c-2.9-1.5-4.3-4.5-3.2-6.6c0.5-1,1.6-1.7,2.9-1.9
					c-0.5-0.2-0.9-0.4-1.3-0.7c-1.2-0.9-1.9-2.4-2.4-3.9s-0.9-3-0.7-4.5c0.5-3.2,3.8-5.2,7-5.9c0.9-0.2,1.9-0.4,2.5-1.1
					c0.4-0.6,0.5-1.5,0-2.1c-0.4-0.5-1-0.8-1.6-0.7c1.2-0.3,2.1-1.3,2.3-2.6c0.1-1.3-0.7-2.7-1.9-3.2c-1.8-0.7-3.8,0.5-5.4,1.7
					c-0.6,0.4-1.4,1.3-2.3,2.3c-3.5,3.7-7.5,5.9-12.4,7.2c-6.8,1.8-8.2,11.5-7.6,17.1c0.4,3.6,1.8,7.5,4,10.4
					c2.8,3.9,7.6,5.8,12.1,6.8c2.4,0.5,8.7,1.9,13.1-1.8C622.9,385.3,618.1,378.1,617.6,378.2z"/>
			</g>
		</g>
		<path class="st7" d="M646.1,482.8c0,0,14.8-66.3-7.1-85.4c-5.7-4.9-11.5-3.9-17.1-2.7c-6.7,1.4-11.5,4.2-13.9,7.2
			c-5.7,7.2-11.8,17-3.8,37.2c0.6,1.4,1.2,2.8,1.8,4.2c1.7,3.8,2.3,13.4,2.8,33.1C618.5,488.6,635.1,486.8,646.1,482.8z"/>
		<g>
			<path class="st29" d="M608.4,369.1c1.5,2.5,2.9,5,4.2,7.6c3.9,7.5,7.2,15.2,9.8,22.2c1.7,4.5,1.8,8.9,1.3,12.3
				c-0.8,5.7-6.3,9.7-11.9,8.2c-3.9-1.1-7.9-4.5-9.4-13.4l-6.7-28.2l-2.8-7l-1.2-3l-23.2-26.3l-0.3,0.2c0,0-1.2-1.7-7.5-2.8
				c0,0-6.6,0.5-4.5-1.7l4.3-0.7c0.7-0.1,1.2-0.7,1.1-1.4c-0.1-0.7-0.3-1.7-1.1-2.9c-0.7-1.1-1.3-2.4-1.6-3.7
				c-2.3-8.1,1.6-6.8,7.9-1.8c0.8,0.8,1.6,1.6,2.4,2.5c2,2.4,4.3,5.6,4.7,8.5c10.1,4.1,20.6,11.2,27.9,21.3
				C604.2,362.3,606.4,365.7,608.4,369.1z"/>
		</g>
	</g>
	<g>
		<g>
			<path class="st32" d="M549.7,441c1.3,3.3,1.9,6.3,2.3,8.9c1,7.8-9.2,11.8-13.5,5.3c-1.5-2.3-2.8-5.5-3.6-10.1
				c0-0.2-0.1-0.4-0.2-0.6l-10.1-27.8l-2.9-7.3l-1-2.5c-0.2-0.4-0.4-0.8-0.7-1.1l-23.9-27.1l-0.3,0.2c0,0-1.2-1.7-7.4-2.8
				c-0.3-0.1-0.6-0.1-0.9-0.1c-1.5,0.1-6.2,0.2-4.3-1.8l4.5-0.7c0.7-0.1,1.2-0.8,1.2-1.5c-0.1-0.6-0.3-1.5-0.8-2.5
				c-1.1-1.9-2-3.9-2.4-6c-1.4-6.6,2.5-5.2,8.5-0.4c0.1,0.1,0.2,0.2,0.3,0.3c0.8,0.8,1.6,1.6,2.3,2.5c1.8,2.1,3.7,4.8,4.6,7.4
				c0.3,0.9,0.9,1.7,1.8,2.1c10.4,5,23.9,18.5,31.2,28.7C536.9,407.2,546.9,433.6,549.7,441z"/>
		</g>
		<path class="st9" d="M395.8,554.3c-2.6,5.4-3.8,9.8-4.2,13.3c0.9,0.3,1.9,0.5,2.9,0.8c93.2,24.2,145.1,5.9,162.6-44.4l-36-8.8
			c0,0-17.3,6.4-17.9,25c-16,9.1-28.1,15.8-44.6,18.2c0,0-1.7-4.7-13.6-4.1C432.4,554.8,408.8,557.2,395.8,554.3z"/>
		<path class="st33" d="M352.5,562c16.5-2.7,23-0.6,29.8,2.1c0.7-5.4,3-9.4,5.1-11.9c-1.2-0.3-2.3-0.6-3.4-0.9c0,0-5.1-7.4-15.1,0
			c0,0-13.8-2.3-19.2,6C348.2,559.4,350,562.4,352.5,562z"/>
		<path class="st9" d="M557.1,523.9c39.6,6.8,76.7,14.5,83.1,34.4c-1.2,13.5-11.8,14.1-23.7,13L531.7,554l13.2-33.2L557.1,523.9z"/>
		<path class="st9" d="M566.3,564.4v8.8c2.9,0.2,5.7,0.4,8.4,0.5c38.2,2,67.5,0.2,65.5-15.3c-5.1-19.5-33.4-10.7-65.5,2.5
			C571.9,562,569.1,563.2,566.3,564.4z"/>
		<path class="st33" d="M566.3,573.2h-26c-2.3,0-3.4-2.8-1.7-4.4c3-2.7,7.9-3.9,15-3.5c0,0,3.3-5.5,12.7-0.9V573.2z"/>
		<path class="st34" d="M382.3,564.1L382.3,564.1c2.8,1.1,5.7,2.4,9.3,3.5c0.4-3.5,1.6-7.9,4.2-13.3l-8.4-2.1
			C385.3,554.8,383,558.7,382.3,564.1z"/>
		<path class="st34" d="M566.3,564.4v8.8c2.9,0.2,5.7,0.4,8.4,0.5v-12.8C571.9,562,569.1,563.2,566.3,564.4z"/>
		<path class="st35" d="M519.3,474.1c2.9,6.3,12.2,13.6,12.4,20.5c0.2,7.6-7.8,15.8-10.6,20.6c0,0,18.7,24.3,43.1,19.1
			c-4.7-19.5-7-39.6-6.7-59.7c2.9-3,4.2-6.7,4.2-10.5c0-4.8-2.3-9.6-6.6-12.5c-1.6-1.1-3.2-2.2-4.6-3.5c-1-0.8-1.9-1.7-2.7-2.6
			c-3.8-4.4-9.3-6.9-15-6.9c-1.1,0-2.3,0.1-3.4,0.3L529,439l-2.1,3.6l-6.7,11.7C516.7,460.5,516.5,467.9,519.3,474.1z"/>
		<g>
			<g>
				<g>
					<path class="st33" d="M519.4,423.9c-4.1-5-6.4-11.4-6-17.9c0.3-4.2,1.5-7.9,3.9-9.8c5.7-4.4,16.2-5.4,25.9,10.8
						c0,0,7.4-1.8,2.7,3.5c4,9.3,2,15.2-3.2,19c-2.8,2-8.3,1.8-13.1,0.6c-4.1-1-7-2.3-9.6-5.6L519.4,423.9z"/>
				</g>
			</g>
			<path class="st33" d="M525.7,439.7c2.7-3.1,3.2-7,0.7-12l12.7-0.5l1.4,11.3c2.7,1.2,11.5,10.7,11.5,10.7s0.1,10.9-14.6,0.8
				C537.4,450,526.3,440.4,525.7,439.7z"/>
			<g>
				<path class="st5" d="M504.3,404.4c0.5-3,4.7-18,20.1-16.6c2.5-0.8,5.1-1.3,7.6-1.4c2.6-0.1,5,1,6.7,2.8c2.1,2.2,1.8,4.4,1.8,6.7
					c0,0.9,0,2.6-1.1,2.7c-1.1,0.2-2.6-2-3-2.8c0.7,2.8-5,6-6.5,3.2c-0.1,0.8,0.1,1.8-0.1,2.7c-0.2,1.1-0.6,2.1-1.1,3
					c0,0,0,0.1-0.1,0.1c-1.4,2.3-1.4,5.2,0.3,7.4c0.2,0.2,0.3,0.5,0.5,0.8c-1.6,0-3.2-0.8-4.9-0.2c-1.5,0.5-2,1.8-2,3.3
					s0.9,3.1,2.2,3.9c1,0.6,4.8,1.3,5.6,0.1c1.2,1.4,2.2,3.7,0.3,8c-1.3,3-4.2,3.7-7.4,4.1c-6.9,0.9-12.6-4.4-15.7-10.1
					C504.6,416.7,503.3,410.7,504.3,404.4z"/>
			</g>
			<g>
				<path class="st5" d="M506.1,402.5c-1.5-1.8-5.6-2-7.7-2c-3.1,0-5.7,1-8.2,2.7c-1.8,1.3-2.3,2.6-2.9,4.6
					c-1.3,4.3-0.6,9.4,0.6,13.6c1.1,3.9,3.7,7.6,5.6,11.1c2.8,5,7,11.2,2.5,16.4c-2.3,2.7-6.8,5.8-4.2,9.7c1.1,1.6,2.5,3.2,1.2,5
					c-0.9,1.2-2.2,1.9-3.7,2c-1.2,0.1-1.4-0.4-1.8-1.5c0.7,2.5,3.8,3.7,6.1,4.1c3,0.5,6.1,0.3,9-0.5c1.6-0.4,2.8-0.9,4.2-1.7
					c1.6-0.9,3.3-1.5,4.9-2.3c2.6-1.3,5.1-3.1,7.2-5.2c2-2.1,3.1-5.2,3.5-8c0.5-3.2-0.6-5.9-1.9-8.7c-1.5-3.3-4.5-5.7-5.8-9.1
					c-1.6-4-0.6-7.5,0.5-11.4c1-3.5,1.3-7.9-0.2-11.3c-1.7-3.9-3.3-7.8-8.3-7.9"/>
			</g>
		</g>
		<g>
			<path class="st33" d="M533.5,450.3c1.3,3.3,1.9,6.3,2.3,8.9c1,7.8-9.2,11.8-13.5,5.3c-1.5-2.3-2.8-5.5-3.6-10.1
				c0-0.2-0.1-0.4-0.2-0.6L508.4,426l-2.9-7.3l-1-2.5c-0.2-0.4-0.4-0.8-0.7-1.1L479.9,388l-0.3,0.2c0,0-1.2-1.7-7.4-2.8
				c-0.3-0.1-0.6-0.1-0.9-0.1c-1.5,0.1-6.2,0.2-4.3-1.8l4.5-0.7c0.7-0.1,1.2-0.8,1.2-1.5c-0.1-0.6-0.3-1.5-0.8-2.5
				c-1.1-1.9-2-3.9-2.4-6c-1.4-6.6,2.5-5.2,8.5-0.4c0.1,0.1,0.2,0.2,0.3,0.3c0.8,0.8,1.6,1.6,2.3,2.5c1.8,2.1,3.7,4.8,4.6,7.4
				c0.3,0.9,0.9,1.7,1.8,2.1c10.4,5,23.9,18.5,31.2,28.7C520.7,416.6,530.7,443,533.5,450.3z"/>
		</g>
	</g>
</g>
<g>
	<g>
		<path class="st23" d="M135.8,449.8c0,2.1-20.1,3.9-44.8,3.9s-44.8-1.7-44.8-3.9c0-2.1,20-3.9,44.8-3.9
			C115.7,445.9,135.8,447.7,135.8,449.8z"/>
		<g>
			<g>
				<path class="st5" d="M108,417.3H78.1v-13.8c0-3.2,2.6-5.8,5.8-5.8h18.4c3.2,0,5.8,2.6,5.8,5.8v13.8H108z M83.6,411.8L83.6,411.8
					h19v-8.3c0-0.2-0.1-0.3-0.3-0.3H83.8c-0.2,0-0.3,0.1-0.3,0.3L83.6,411.8L83.6,411.8z"/>
			</g>
			<rect x="53.1" y="407.5" class="st9" width="73.6" height="42.3"/>
			<rect x="53.1" y="407.5" class="st36" width="5.7" height="42.3"/>
			<rect x="53.1" y="407.5" class="st8" width="73.6" height="18.1"/>
			<rect x="53.1" y="407.5" class="st23" width="5.7" height="18.2"/>
			<rect x="53.1" y="425.6" class="st23" width="73.6" height="1.2"/>
			<g>
				<rect x="63.4" y="407.5" class="st23" width="2.8" height="6.1"/>
				<rect x="71.5" y="407.5" class="st23" width="2.8" height="6.1"/>
				<rect x="79.5" y="407.5" class="st23" width="2.8" height="6.1"/>
				<rect x="87.6" y="407.5" class="st23" width="2.8" height="6.1"/>
				<rect x="95.7" y="407.5" class="st23" width="2.8" height="6.1"/>
				<rect x="103.7" y="407.5" class="st23" width="2.8" height="6.1"/>
				<rect x="111.8" y="407.5" class="st23" width="2.8" height="6.1"/>
				<rect x="119.8" y="407.5" class="st23" width="2.8" height="6.1"/>
			</g>
		</g>
	</g>
	<path class="st37" d="M76.6,441.2c5.8,0,10.6-4.7,10.6-10.6c0-5.8-4.7-10.6-10.6-10.6c-5.8,0-10.6,4.7-10.6,10.6
		S70.8,441.2,76.6,441.2z"/>
	<path class="st37" d="M107.1,441.2c5.8,0,10.6-4.7,10.6-10.6c0-5.8-4.7-10.6-10.6-10.6c-5.8,0-10.6,4.7-10.6,10.6
		S101.3,441.2,107.1,441.2z"/>
	<path class="st5" d="M75.2,441.2c5.8,0,10.6-4.7,10.6-10.6c0-5.8-4.7-10.6-10.6-10.6c-5.8,0-10.6,4.7-10.6,10.6
		S69.3,441.2,75.2,441.2z"/>
	<path class="st5" d="M105.7,441.2c5.8,0,10.6-4.7,10.6-10.6c0-5.8-4.7-10.6-10.6-10.6c-5.8,0-10.6,4.7-10.6,10.6
		S99.9,441.2,105.7,441.2z"/>
	<path class="st38" d="M70.8,389.5c-3.4-0.6,3.5,3.5-1.2-2.9c2.6-0.2,4.6-2.3,5.3-2.3c-1.9,4.2,2.4,4.9,1.9,3.4
		c-0.1-0.2-1.1-0.6-1.4,0.3"/>
	<path class="st39" d="M92.6,369.3c4.8-0.9-5,5.1,1.7-4.2c-3.7-0.3-6.5-3.4-7.5-3.3c2.7,6-3.4,7-2.7,4.8c0.1-0.3,1.6-0.9,1.9,0.5"/>
	<path class="st38" d="M103.5,379.9c3.4-0.6-3.5,3.5,1.2-2.9c-2.6-0.2-4.6-2.4-5.3-2.3c1.9,4.2-2.4,4.9-1.9,3.4
		c0.1-0.2,1.1-0.6,1.4,0.3"/>
</g>
<g>
	<g>
		<g>
			<path class="st9" d="M279.3,329l-0.1-0.1c2-1.9,2.3-4.9,2.1-7.7c0-0.6-0.1-1.3-0.2-1.9c-0.7-2.6-3.1-4.3-5.5-5.5v-0.3v-0.2
				c4.1,0.5,8.1,2,11.3,4.6c3.2,2.7,5.3,6.6,5.6,10.7c0.3,4.9-2,9.9-1.3,14.8c0.9,5.8,6,10.2,7.9,15.8c1.5,4.7,0.6,10-2,14.2
				s-6.7,7.3-11.3,9.2c-2.5,1-5.3,1.7-7.7,0.7c-2.9-1.2-4.5-4.4-5.2-7.4c-0.4-1.6-0.7-3.3-2-4.3c-0.8-0.7-1.9-0.9-3-1
				c-2.2-0.3-4.4-0.4-6.5-1.1s-4.1-2.1-4.8-4.2c-1.7-4.9,4.2-10,2.7-14.9c-0.6-2-2.3-3.4-3.3-5.2c-1.2-2.1-1.5-4.8-0.8-7.2
				c0.5-1.6,1.4-2.9,2.7-4l0,0c0.4-0.1,0.7-0.2,0.7-0.2c-0.1,0-0.2-0.1-0.2-0.1c0.5-0.4,1.1-0.7,1.6-1c3.1-1.4,6.7-0.9,10.2-1.1
				C273.3,331.4,276.4,330.5,279.3,329z"/>
		</g>
		<g>
			<g>
				<path class="st40" d="M290.9,260l0.3,0.1c3.5-3.7,7.2-7.4,11.8-9.2c0.9-0.4,1.7,0.7,1.2,1.5c-3.8,5.5-8,10.9-13.6,14.3
					c-11.2,14.1-25.9,25.4-36.5,40c-3-0.3-6,1-8.8,2c-2.5,0.9-5.1,1.4-7.7,1.7c-0.1,0-0.1,0-0.2,0c6-9,13.7-16.8,22.6-22.9l0,0
					c2.6-3.9,5.2-7.8,8.6-11c4.7-4.3,10.6-7,15.3-11.3l0.1,0.1c0.2,0,0.4-0.2,0.5-0.4c2.8-3.2,4.7-7,7-10.5c0.6-0.9,1.3-1.8,2.2-2.4
					C292.7,254.7,291.8,257.3,290.9,260z"/>
				<path class="st40" d="M290.1,417c0.6,0.4,1.3,1,1,1.6c-3.6,0.5-7.3-0.2-10.6-1.5c-3.4-1.3-6.5-3.1-9.6-5l-0.2,0.1
					c0.7,2.6,0.9,5.3,0.5,7.9c-1.2-0.7-1.7-2.3-2.1-3.6c-2.8-9.2-8-17.6-15-24.2c-3.5-3.3-7.6-6.4-9.1-10.9c-0.8-2.4-0.8-5-1.2-7.6
					c-0.3-2.3-1.1-4.7-2.7-6.2c1.1-0.7,2.4-1.2,3.8-1.4c1.7-0.3,3.5-0.1,5.2-0.1l2,0.5c0.3,3.4,1.5,6.7,3.4,9.5
					c1,1.5,2.2,2.8,3.2,4.3c1.6,2.4,2.7,5.1,3.8,7.7c1.4,3.3,2.7,6.6,4.1,9.9c1.1,2.6,2.2,5.2,4.1,7.2c1.5,1.6,3.5,2.8,5.5,3.9
					C280.8,411.7,285.5,414.4,290.1,417z"/>
				<path class="st41" d="M258.2,333.7c0.1,0.1,0.2,0.1,0.2,0.1s-0.3,0.1-0.7,0.2C257.9,334,258.1,333.9,258.2,333.7z"/>
				<path class="st7" d="M238.2,369.8l-0.1,0.4c-1.9-0.5-2.8-2.8-3-4.7c-0.2-2-0.1-4.2-1.1-5.9c-1.1-1.8-3.5-2.7-5.6-2.6
					c-2.2,0.1-4.2,1-6.1,2.1c-1.9,1-3.8,2.2-5.8,2.9v-0.1c-2.1,0.9-4.6,0.4-6.5-1c-1.7-1.2-3-2.9-4.2-4.7c-0.1-0.2-0.3-0.4-0.4-0.6
					c-4.5-7-8.5-14.5-11.8-22.1c0-0.1-0.1-0.1-0.1-0.2c-0.1-0.3-0.3-0.7-0.2-1c0.1-0.6,0.7-1,1.2-1.3c1.9-1.1,3.9-2,5.7-3.2
					c2.6-1.8,4.7-4.4,7.1-6.6c2.4-2.1,5.4-3.9,8.6-3.7c2.3,0.2,4.4,1.4,6.6,2.3c2,0.9,4.4,1.5,6.4,0.7l-0.1-0.2
					c1.6-1,2.8-2.6,3.3-4.5c0.3-1.2,0.3-2.6,1.1-3.6c1-1.3,2.7-1.5,4.3-1.7c0.1,0,0.1,0,0.2,0c2.6-0.3,5.2-0.9,7.7-1.7
					c2.9-1,5.9-2.3,8.8-2c0.3,0,0.5,0.1,0.8,0.1c0.2,0.1,0.5,0.1,0.6,0.3c0.1,0.2,0.1,0.5,0,0.7c-0.3,1-0.8,1.9-1.3,2.7
					c-2.4,4.3-4.9,8.6-7.3,12.8v0.1c-1,0.1-2,0-3-0.1c-0.3,0-0.5-0.1-0.8,0.1c-0.2,0.1-0.4,0.4-0.5,0.6c-0.6,1-1.2,2-1.7,3
					c-0.5,0.9-1.1,1.9-1.1,3c0,1.5,1,2.7,2,3.8c1.8,1.9,3.9,3.6,6.1,5.1c0.1,0,0.2,0.1,0.2,0.1c3,2.6,3.5,7.1,3.7,11.1
					c0.3,4.9,0.6,9.8,0.9,14.6c0,0.3,0,0.6-0.1,0.8c-0.2,0.3-0.6,0.4-1,0.4c-0.5,0.1-1,0.1-1.5,0.1c-1.7,0-3.5-0.2-5.2,0.1
					c-1.3,0.2-2.6,0.7-3.8,1.4c-0.9,0.6-1.7,1.3-2.4,2.2L238.2,369.8z"/>
				<path class="st40" d="M178.9,350.2c3.9-6.3,8.9-12,14.6-16.8c3.3,7.7,7.3,15.1,11.8,22.1c0.1,0.2,0.3,0.4,0.4,0.6
					c-1,2.6-2.1,5.2-3.1,7.8c-0.1-0.1-0.2,0.2-0.3,0.1c-9.1-1.3-17.9-6-23.9-13C178.5,351,178.8,350.4,178.9,350.2z"/>
			</g>
			<g>
				<path class="st5" d="M220.2,462c0.3,0.6,0.3,1.4,0.2,2.1c-0.5,9.6-3.8,18.8-7,27.9c-0.2,0.6-0.6,1.3-1.2,1.2
					c-0.4,0-0.7-0.3-0.9-0.6c-1.7-2.2-2.2-5-2.5-7.7l0.9-0.1c3.5-4,5-9.4,6.3-14.5c0.8-3,1.5-6.2,0.3-9l-0.1-0.4
					c0.2-0.1,0.5-0.1,0.7-0.2C218.2,460.4,219.6,460.8,220.2,462z"/>
				<path class="st40" d="M214.1,461.8c0.7-0.4,1.4-0.8,2.1-1.1l0.1,0.4c1.2,2.8,0.4,6.1-0.3,9c-1.3,5.2-2.8,10.5-6.3,14.5l-0.9,0.1
					c-0.1-0.7-0.1-1.5-0.2-2.2c-0.9-10.3-2.4-20.5-4.5-30.7v-0.3c0.6,0,1.3-0.1,1.9-0.2c1.8-0.3,3.6-0.6,5.4-0.8
					c0.5-0.1,1.1-0.2,1.5-0.4c0.1,0,0.1-0.1,0.2-0.1C213.8,454,214.1,457.9,214.1,461.8z"/>
				<path class="st14" d="M213.1,450.1c-0.1,0.1-0.1,0.1-0.2,0.1c-0.5,0.3-1,0.4-1.5,0.4c-1.8,0.3-3.6,0.6-5.4,0.8
					c-0.6,0.1-1.3,0.2-1.9,0.2c-0.8,0-1.5-0.1-2.1-0.5c-0.9-0.6-1.4-1.7-1.8-2.7c1.3,0.2,2.7,0,3.9-0.7l0.1-1.5
					c2.5,0.5,5.3,0.9,7.3-0.6c0.3-0.2,0.6-0.5,0.8-0.7l0.8,0.1c0.4,0.9,0.8,1.7,0.8,2.7C214.1,448.6,213.8,449.6,213.1,450.1z"/>
				<path class="st5" d="M202.6,364c0.6,1.1,0.9,2.3,0.8,3.6c-0.1,0-0.1,0-0.2,0c-10.9,1.4-22.4-4-28.3-13.4c-0.1,0-0.2,0-0.2,0
					c-0.1,0-0.2,0-0.2,0c0.7-1.9,2.4-3.4,4.4-3.9c-0.1,0.1-0.2,0.3-0.2,0.4c6,7,14.6,11.7,23.7,13.1
					C202.5,363.8,202.5,363.9,202.6,364z"/>
				<path class="st8" d="M174.5,354.2c0.1,0,0.2,0,0.2,0v0.1c-1.9,5.1,2.1,11.4,2.1,16.8c0,4.1-1.9,6.3-0.6,10.1
					c0.1,0.4-1,1.6-0.9,2c-4.1,0.4-10.1-0.7-13.7-2.7c-4-2.1-7.5-5.3-10.4-8.7c-1.5-1.7-2.9-3.6-4.4-5.3l0,0
					c-0.2-0.1-0.5-0.3-0.7-0.4l-0.4,0.7c0.3,1.3,0,2.6-0.4,3.9c-0.3,0.8-0.7,1.6-1.3,2.2c-0.1,0.1-0.3,0.2-0.5,0.4
					c-1.3,0.8-3,0.8-4.6,0.6l-0.9,0.2c-1.8,1.3-4.1,2.3-6.2,2.3c-0.9,0-1.8-0.1-2.7-0.4c-2.3-0.9-3.9-3-4.9-5.3
					c-1-2.2-1.6-4.7-2.7-6.9c-1.5-3.1-3.8-5.7-5.3-8.7c-1.5-3.1-1.8-7.1,0.4-9.6c1.4-1.6,3.7-2.3,5.8-2.3c2.1,0,4.3,0.5,6.3,1
					C144,348,159.2,351.3,174.5,354.2z"/>
				<path class="st5" d="M162,413c0.1,0.9,0.1,2-0.6,2.4c-2.4-1.9-4.2-4.4-5.9-6.9c1-4.9,1-10,0.2-14.9c-0.5-2.9-1.5-6.1-3.9-7.8
					c0.2-1.1,0.8-2.1,1.7-2.6c1.4-0.7,3,0.1,3.9,1.4c0.9,1.2,1.1,2.8,1.3,4.3C159.9,396.8,161,404.9,162,413z"/>
				<path class="st40" d="M151.5,386.8L151.5,386.8c0.1-0.4,0.2-0.7,0.2-1.1c2.3,1.7,3.4,4.9,3.9,7.8c0.8,4.9,0.8,10-0.2,14.9
					c-0.8-1.2-1.6-2.4-2.3-3.6c-5.6-8.7-11.8-17-18.6-24.8c0.7-0.1,1.3-0.3,2-0.5c2.1-0.7,4.2-1.5,6.2-2.4c0.2-0.1,0.5-0.2,0.7-0.3
					C146.3,380,149,383.3,151.5,386.8z"/>
				<path class="st14" d="M143.4,376.8c-0.2,0.1-0.5,0.2-0.7,0.3c-2,0.9-4.1,1.7-6.2,2.4c-0.7,0.2-1.3,0.4-2,0.5
					c-0.3,0-0.5,0.1-0.8,0.1s-0.6,0-0.8-0.2c-0.9-0.5-0.6-1.8-1-2.8c-0.1-0.1-0.1-0.3,0-0.4c0,0,0,0,0.1,0v-0.4
					c2.2-0.1,4.4-1,6.2-2.3l0.9-0.2c1.6,0.1,3.3,0.2,4.6-0.6c1,0.5,1.4,2,0.6,2.9C144,376.4,143.7,376.6,143.4,376.8z"/>
				<path class="st8" d="M204.3,446.2l-0.1,1.5c-1.2,0.7-2.6,0.9-3.9,0.7c-2.5-0.4-4.9-2-6.3-4.2c-2.2-3.3-2.6-7.5-3.2-11.4
					c-0.9-6.3-2.4-12.5-4.5-18.5c-3.7-10.6-9-20.5-12.7-31c-0.1-0.4-0.3-0.8-0.4-1.2c-1.3-3.9-2.1-7.8-2.3-11.9
					c-0.4-7.9,3.9-16.6,3.9-16.6c5.8,9.4,17.6,15.2,28.6,13.8c4,9.3-0.1,20.4,1.1,30.5c1.3,10.7,8.2,20.2,9.6,30.9
					c0.4,2.9,0.3,5.9,0.3,8.9c-0.1,2.5-0.3,5.4-2,7.2c-0.2,0.3-0.5,0.5-0.8,0.7C209.6,447.1,206.8,446.7,204.3,446.2z"/>
			</g>
			<g>
				<path class="st40" d="M253,322.1c0-0.3,0-0.5,0.1-0.8c0.3-2.5,1.6-4.9,3.8-6.3c2.3-1.4,5.1-1.5,7.7-1.5c3.6,0,7.3,0,11-0.1v0.3
					c2.4,1.2,4.9,2.9,5.5,5.5c0.2,0.6,0.2,1.2,0.2,1.9c0.1,2.7-0.2,5.8-2.1,7.7l0.1,0.1c-2.9,1.5-6.1,2.4-9.3,2.6
					c-3.4,0.2-7-0.3-10.2,1.1c-0.6,0.3-1.1,0.6-1.6,1c-1.9-1.1-3.1-3.1-3.9-5.1C253.4,326.5,252.9,324.3,253,322.1z"/>
				<path class="st40" d="M248.1,339.1c-0.1,0-0.2-0.1-0.2-0.1c-2.2-1.4-4.3-3.1-6.1-5.1c-1-1.1-2-2.3-2-3.8c0-1.1,0.6-2.1,1.1-3
					c0.6-1,1.2-2,1.7-3c0.1-0.2,0.3-0.5,0.5-0.6s0.5-0.1,0.8-0.1c1,0.1,2,0.1,3,0.1c2.1-0.1,4.2-0.6,6.1-1.5
					c-0.1,2.2,0.4,4.5,1.3,6.6c0.8,2,2.1,4,3.9,5.1c-0.2,0.1-0.3,0.2-0.5,0.4l0,0c-1.9,0.7-7.1,2.6-8.8,4.7
					c-0.1,0.1-0.2,0.2-0.4,0.3C248.4,339.2,248.3,339.2,248.1,339.1z"/>
				<path class="st42" d="M253.1,322.6c0.1-0.5-0.6-0.7-0.7-0.2c-0.6,3.2,0.7,6.5,2.1,9.3c0.2,0.4,0.9,0,0.6-0.4"/>
			</g>
		</g>
	</g>
	<path class="st23" d="M258.3,491.5c0,3.1-20,5.7-44.8,5.7c-24.8-0.1-44.8-2.6-44.8-5.7s20-5.7,44.8-5.7
		C238.3,485.9,258.3,488.4,258.3,491.5z"/>
</g>
<g>
	<g>
		<path class="st1" d="M145.7,629.7c1-17.2,15.4-30.9,32.9-30.9c13.8,0,25.6,8.5,30.5,20.6c3.9-4.4,9.6-7.2,16-7.2
			c10.4,0,19.2,7.6,20.9,17.7H145.7V629.7z"/>
		<path class="st2" d="M102.1,629.7c1-17.2,15.4-30.9,32.9-30.9c13.8,0,25.6,8.5,30.5,20.6c3.9-4.4,9.6-7.2,16-7.2
			c10.4,0,19.2,7.6,20.9,17.7H102.1V629.7z"/>
	</g>
	<g>
		<path class="st1" d="M50.9,629.7c1-17.2,15.4-30.9,32.9-30.9c13.8,0,25.6,8.5,30.5,20.6c3.9-4.4,9.6-7.2,16-7.2
			c10.4,0,19.2,7.6,20.9,17.7H50.9V629.7z"/>
		<path class="st2" d="M29.3,629.7c1-17.2,15.4-30.9,32.9-30.9c13.8,0,25.6,8.5,30.5,20.6c3.9-4.4,9.6-7.2,16-7.2
			c10.4,0,19.2,7.6,20.9,17.7H29.3V629.7z"/>
	</g>
	<g>
		<path class="st1" d="M91.9,629.7c-0.1,0.5-5.1-13.3,2.8-26.1c7.8-12.8,22.6-33.5,48.2-46.3s63-9.9,50.2,11.8
			c-12.7,21.6-38.3,31.5-46.3,34.5c-7.8,2.9-34.8,21.7-39.1,26.1H91.9z"/>
		<path class="st2" d="M69.8,629.7c0,0-19.4-10.3-20.5-26.1c-1-15.8,7.8-53.2-40.4-63.9c0,0-0.9-2.9,7.8-4c8.9-1,56-5.5,72.3,31.1
			l7.4,20L88,629.6L69.8,629.7z"/>
		<path class="st3" d="M19.8,538.2c0,0,46.3-1.1,53.9,44.5"/>
		<path class="st3" d="M100.9,620.6c6.2-15.3,32.9-53.3,85.8-62.4"/>
		<path class="st1" d="M75.9,629.7c0,0-14-19.2-16-28.1s0.9-20.7,12.7-20.7s16.7-2.9,17.7-19.7c0.9-16.7-2-30.5,12.7-29.6
			s21.7,24,9.4,49l-13.6,49L75.9,629.7z"/>
		<path class="st3" d="M78.2,625.7c0,0-3-25.6,10.8-38.4c13.8-12.8,18.7-37.4,13.7-51.2"/>
	</g>
</g>
<circle class="st0" cx="590.4" cy="109.1" r="10.9"/>
<circle class="st0" cx="666.4" cy="28.6" r="5.8"/>
<path class="st38" d="M541.6,206.3c-3.4-0.6,3.5,3.5-1.2-2.9c2.6-0.2,4.6-2.3,5.3-2.3c-1.9,4.2,2.4,4.9,1.9,3.4
	c-0.1-0.2-1.1-0.6-1.4,0.3"/>
<path class="st39" d="M574,169.4c4.8-0.9-5,5.1,1.7-4.2c-3.7-0.3-6.5-3.4-7.5-3.3c2.7,6-3.4,7-2.7,4.8c0.1-0.3,1.6-0.9,1.9,0.5"/>
<path class="st38" d="M576.5,200.7c3.4-0.6-3.5,3.5,1.2-2.9c-2.6-0.2-4.6-2.4-5.3-2.3c1.9,4.2-2.4,4.9-1.9,3.4
	c0.1-0.2,1.1-0.6,1.4,0.3"/>
</svg>
